<?xml version="1.0" encoding="utf-8"?>
<!-- Generator: Adobe Illustrator 26.2.1, SVG Export Plug-In . SVG Version: 6.00 Build 0)  -->
<svg version="1.1" id="Layer_1" xmlns="http://www.w3.org/2000/svg" xmlns:xlink="http://www.w3.org/1999/xlink" x="0px" y="0px"
	 viewBox="0 0 196.8 105" style="enable-background:new 0 0 196.8 105;" xml:space="preserve">
<style type="text/css">
	.st0{fill:#7EBF42;}
	.st1{fill:#FFFFFF;}
	.st2{fill:#7DC247;}
	.st3{fill:#B6D884;}
	.st4{fill:#5C903F;}
	.st5{fill:#4E9DB5;}
	.st6{fill:#2B6C80;}
	.st7{fill:#A5CBDE;}
</style>
<g>
	<path class="st0" d="M27.2,45.3c-0.4,0-0.7-0.1-1.2-0.2c-1.2-0.7-1.7-2.2-1.1-3.3c1.1-2,2.2-3.9,3.6-5.7c0.8-1.1,2.4-1.2,3.5-0.4
		c1.1,0.8,1.3,2.4,0.4,3.5c-1.2,1.6-2.2,3.2-3.1,5C28.9,44.8,28,45.3,27.2,45.3z"/>
	<path class="st1" d="M57.6,55.2H45.7v12.5H42V39.4h17.5v3.1H45.7v9.7h11.9V55.2z"/>
	<path class="st1" d="M72.5,49.9c-0.6-0.1-1.2-0.2-1.7-0.2c-2.3,0-4,1-4.8,3v14.9h-3.6v-21h3.5l0.1,2.4c1.2-1.9,2.8-2.8,5.1-2.8
		c0.7,0,1.2,0.1,1.6,0.2L72.5,49.9L72.5,49.9z"/>
	<path class="st1" d="M83.5,68.1c-2.8,0-5.1-0.9-7-2.8c-1.8-1.9-2.7-4.4-2.7-7.5v-0.7c0-2.1,0.4-4,1.2-5.6c0.7-1.6,1.9-2.9,3.3-3.8
		c1.4-0.9,3-1.4,4.6-1.4c2.7,0,4.9,0.9,6.4,2.7c1.5,1.8,2.2,4.4,2.2,7.7v1.5H77.5c0.1,2.1,0.7,3.7,1.8,5.1c1.2,1.3,2.7,1.9,4.4,1.9
		c1.2,0,2.3-0.2,3.2-0.7c0.9-0.5,1.7-1.2,2.3-2.1l2.2,1.7C89.8,66.7,87.1,68.1,83.5,68.1z M83.1,49.2c-1.5,0-2.7,0.5-3.6,1.6
		c-1,1.1-1.6,2.6-1.8,4.5h10.5V55c-0.1-1.8-0.6-3.2-1.5-4.2S84.6,49.2,83.1,49.2z"/>
	<path class="st1" d="M94.5,57c0-3.2,0.7-5.8,2.3-7.8c1.6-2,3.6-2.9,6-2.9c2.5,0,4.4,0.8,5.9,2.5V37.9h3.6v29.8h-3.3l-0.2-2.2
		c-1.4,1.7-3.5,2.7-6,2.7c-2.4,0-4.4-1-6-3s-2.3-4.6-2.3-7.9V57L94.5,57z M98,57.4c0,2.4,0.5,4.2,1.5,5.6c1,1.4,2.3,2,4.1,2
		c2.3,0,4-1,5-3.1v-9.7c-1.1-2-2.7-3-5-3c-1.7,0-3.1,0.7-4.1,2.1C98.5,52.8,98,54.8,98,57.4z"/>
	<path class="st1" d="M125.1,68.1c-2.8,0-5.1-0.9-7-2.8c-1.8-1.9-2.7-4.4-2.7-7.5v-0.7c0-2.1,0.4-4,1.2-5.6c0.7-1.6,1.9-2.9,3.3-3.8
		c1.4-0.9,3-1.4,4.6-1.4c2.7,0,4.9,0.9,6.4,2.7c1.5,1.8,2.2,4.4,2.2,7.7v1.5h-14.3c0.1,2.1,0.7,3.7,1.8,5.1c1.2,1.3,2.7,1.9,4.4,1.9
		c1.2,0,2.3-0.2,3.2-0.7s1.7-1.2,2.3-2.1l2.2,1.7C131.3,66.7,128.6,68.1,125.1,68.1z M124.6,49.2c-1.5,0-2.7,0.5-3.6,1.6
		c-1,1.1-1.6,2.6-1.8,4.5h10.5V55c-0.1-1.8-0.6-3.2-1.5-4.2S126.1,49.2,124.6,49.2z"/>
	<path class="st1" d="M147,49.9c-0.6-0.1-1.2-0.2-1.7-0.2c-2.3,0-4,1-4.8,3v14.9h-3.6v-21h3.5l0.1,2.4c1.2-1.9,2.8-2.8,5-2.8
		c0.7,0,1.2,0.1,1.6,0.2L147,49.9L147,49.9z"/>
	<path class="st1" d="M149.8,41.1c0-0.6,0.2-1.1,0.5-1.5s0.9-0.6,1.6-0.6c0.7,0,1.2,0.2,1.6,0.6s0.6,0.9,0.6,1.5
		c0,0.6-0.2,1.1-0.6,1.5s-0.9,0.6-1.6,0.6c-0.7,0-1.2-0.2-1.6-0.6C149.9,42.2,149.8,41.7,149.8,41.1z M153.6,67.7H150v-21h3.6V67.7z
		"/>
	<path class="st1" d="M167.2,65.1c1.2,0,2.4-0.4,3.3-1.2s1.5-1.7,1.6-2.9h3.4c-0.1,1.2-0.5,2.3-1.2,3.4c-0.7,1.1-1.7,2-3.1,2.6
		s-2.7,1-4.1,1c-2.9,0-5.1-0.9-6.8-2.9c-1.7-2-2.6-4.6-2.6-7.9v-0.6c0-2.1,0.4-3.9,1.2-5.5c0.7-1.6,1.8-2.8,3.2-3.7
		c1.4-0.9,3.1-1.3,5-1.3c2.3,0,4.3,0.7,5.9,2.1c1.6,1.3,2.4,3.2,2.5,5.5H172c-0.1-1.3-0.7-2.5-1.6-3.3c-0.9-0.8-2.1-1.3-3.4-1.3
		c-1.8,0-3.2,0.7-4.2,2s-1.5,3.2-1.5,5.7v0.7c0,2.4,0.5,4.3,1.5,5.6S165.3,65.1,167.2,65.1z"/>
	<path class="st1" d="M184.8,58l-2.2,2.3v7.4H179V37.9h3.6v18.1l1.9-2.3l6.5-6.9h4.4l-8.2,8.8l9.1,12.3h-4.2L184.8,58z"/>
	<path class="st1" d="M50.7,86.7h-1.7l-6.2-9.5v9.5h-1.7V74.3h1.7l6.2,9.6v-9.6h1.7V86.7z"/>
	<path class="st1" d="M59.3,86.7c-0.1-0.2-0.2-0.5-0.2-1c-0.7,0.7-1.6,1.2-2.7,1.2c-0.9,0-1.7-0.2-2.2-0.7s-0.9-1.2-0.9-2
		c0-1,0.3-1.7,1.1-2.2s1.7-0.8,3.1-0.8H59v-0.7c0-0.6-0.2-1-0.5-1.3c-0.3-0.3-0.8-0.5-1.5-0.5c-0.6,0-1,0.2-1.4,0.4
		c-0.4,0.2-0.6,0.7-0.6,1h-1.6c0-0.4,0.2-0.9,0.5-1.3c0.3-0.4,0.7-0.7,1.3-1c0.6-0.2,1.2-0.4,1.8-0.4c1.1,0,1.9,0.2,2.5,0.8
		c0.6,0.5,0.9,1.2,0.9,2.2v4.2c0,0.8,0.1,1.5,0.3,2v0.2L59.3,86.7L59.3,86.7z M56.7,85.4c0.5,0,1-0.1,1.4-0.4c0.4-0.3,0.7-0.6,1-1
		v-1.9h-1.2c-1.9,0-2.9,0.6-2.9,1.7c0,0.5,0.2,0.9,0.5,1.2C55.8,85.2,56.2,85.4,56.7,85.4z"/>
	<path class="st1" d="M65.6,75.2v2.2h1.7v1.2h-1.7v5.7c0,0.3,0.1,0.7,0.2,0.8c0.2,0.2,0.4,0.2,0.7,0.2c0.2,0,0.4,0,0.7-0.1v1.2
		c-0.4,0.1-0.8,0.2-1.2,0.2c-0.7,0-1.2-0.2-1.6-0.7c-0.3-0.4-0.5-1-0.5-1.8v-5.6h-1.7v-1.2H64v-2.2H65.6L65.6,75.2z"/>
	<path class="st1" d="M69.4,75c0-0.2,0.1-0.5,0.2-0.7s0.4-0.2,0.7-0.2s0.5,0.1,0.7,0.2s0.2,0.4,0.2,0.7s-0.1,0.5-0.2,0.7
		s-0.4,0.2-0.7,0.2s-0.5-0.1-0.7-0.2S69.4,75.2,69.4,75z M71,86.7h-1.6v-9.2H71V86.7z"/>
	<path class="st1" d="M73.4,82c0-0.9,0.2-1.7,0.5-2.4c0.3-0.7,0.8-1.2,1.5-1.7c0.7-0.4,1.3-0.6,2.2-0.6c1.2,0,2.2,0.4,3.1,1.3
		c0.7,0.8,1.2,2,1.2,3.5v0.1c0,0.9-0.2,1.7-0.5,2.4c-0.3,0.7-0.8,1.2-1.5,1.7c-0.7,0.4-1.3,0.6-2.2,0.6c-1.2,0-2.2-0.4-3.1-1.3
		c-0.7-0.8-1.2-2-1.2-3.4V82L73.4,82z M75,82.1c0,1,0.2,1.8,0.7,2.5s1.1,0.9,1.9,0.9s1.4-0.3,1.9-0.9c0.5-0.7,0.7-1.5,0.7-2.7
		c0-1-0.2-1.8-0.7-2.5c-0.5-0.7-1.1-0.9-1.9-0.9c-0.7,0-1.4,0.3-1.9,0.9C75.2,80.1,75,81,75,82.1z"/>
	<path class="st1" d="M85.5,77.5l0.1,1.2c0.7-0.9,1.7-1.3,2.7-1.3c1.9,0,2.9,1.1,2.9,3.3v6h-1.6v-6c0-0.7-0.2-1.2-0.4-1.5
		c-0.3-0.3-0.7-0.5-1.4-0.5c-0.5,0-1,0.2-1.3,0.4c-0.3,0.2-0.7,0.7-0.9,1.1v6.5H84v-9.2H85.5L85.5,77.5L85.5,77.5z"/>
	<path class="st1" d="M99.5,86.7c-0.1-0.2-0.2-0.5-0.2-1c-0.7,0.7-1.6,1.2-2.7,1.2c-0.9,0-1.7-0.2-2.2-0.7s-0.8-1.2-0.8-2
		c0-1,0.3-1.7,1.1-2.2s1.7-0.8,3.1-0.8h1.6v-0.7c0-0.6-0.2-1-0.5-1.3c-0.3-0.3-0.8-0.5-1.5-0.5c-0.6,0-1,0.2-1.4,0.4
		c-0.4,0.2-0.6,0.7-0.6,1h-1.6c0-0.4,0.2-0.9,0.5-1.3c0.3-0.4,0.7-0.7,1.3-1c0.6-0.2,1.2-0.4,1.8-0.4c1.1,0,1.9,0.2,2.5,0.8
		c0.6,0.5,0.9,1.2,0.9,2.2v4.2c0,0.8,0.1,1.5,0.3,2v0.2L99.5,86.7L99.5,86.7z M97,85.4c0.5,0,1-0.1,1.4-0.4c0.4-0.3,0.7-0.6,1-1
		v-1.9h-1.2c-1.9,0-2.9,0.6-2.9,1.7c0,0.5,0.2,0.9,0.5,1.2C96,85.2,96.4,85.4,97,85.4z"/>
	<path class="st1" d="M105.3,86.7h-1.6V73.6h1.6V86.7z"/>
	<path class="st1" d="M114.5,85.4h5.9v1.3H113V74.3h1.7L114.5,85.4L114.5,85.4z"/>
	<path class="st1" d="M128,86.7c-0.1-0.2-0.2-0.5-0.2-1c-0.7,0.7-1.6,1.2-2.7,1.2c-0.9,0-1.7-0.2-2.2-0.7s-0.8-1.2-0.8-2
		c0-1,0.3-1.7,1.1-2.2s1.7-0.8,3.1-0.8h1.6v-0.7c0-0.6-0.2-1-0.5-1.3c-0.3-0.3-0.8-0.5-1.5-0.5c-0.6,0-1,0.2-1.4,0.4
		c-0.4,0.2-0.6,0.7-0.6,1h-1.6c0-0.4,0.2-0.9,0.5-1.3c0.3-0.4,0.7-0.7,1.3-1c0.6-0.2,1.2-0.4,1.8-0.4c1.1,0,1.9,0.2,2.5,0.8
		c0.6,0.5,0.9,1.2,0.9,2.2v4.2c0,0.8,0.1,1.5,0.3,2v0.2L128,86.7L128,86.7z M125.3,85.4c0.5,0,1-0.1,1.4-0.4c0.4-0.3,0.7-0.6,1-1
		v-1.9h-1.2c-1.9,0-2.9,0.6-2.9,1.7c0,0.5,0.2,0.9,0.5,1.2C124.4,85.2,124.8,85.4,125.3,85.4z"/>
	<path class="st1" d="M139.8,82.1c0,1.4-0.3,2.6-1,3.4c-0.7,0.8-1.5,1.2-2.6,1.2c-1.2,0-2.1-0.4-2.7-1.2l-0.1,1.1h-1.4v-13h1.6v4.9
		c0.7-0.8,1.5-1.2,2.7-1.2s2,0.4,2.7,1.2C139.6,79.4,139.9,80.6,139.8,82.1L139.8,82.1L139.8,82.1z M138.2,82c0-1.1-0.2-1.9-0.7-2.5
		c-0.5-0.6-1-0.9-1.7-0.9c-1,0-1.7,0.5-2.2,1.4v4c0.5,1,1.2,1.4,2.2,1.4c0.7,0,1.3-0.3,1.7-0.9S138.2,83.2,138.2,82z"/>
	<path class="st1" d="M141.6,82c0-0.9,0.2-1.7,0.5-2.4c0.3-0.7,0.8-1.2,1.5-1.7c0.7-0.4,1.3-0.6,2.2-0.6c1.2,0,2.2,0.4,3.1,1.3
		c0.7,0.8,1.2,2,1.2,3.5v0.1c0,0.9-0.2,1.7-0.5,2.4s-0.8,1.2-1.5,1.7c-0.7,0.4-1.3,0.6-2.2,0.6c-1.2,0-2.2-0.4-3.1-1.3
		c-0.7-0.8-1.2-2-1.2-3.4V82L141.6,82z M143.2,82.1c0,1,0.2,1.8,0.7,2.5c0.5,0.7,1.1,0.9,1.9,0.9s1.4-0.3,1.9-0.9
		c0.5-0.7,0.7-1.5,0.7-2.7c0-1-0.2-1.8-0.7-2.5c-0.5-0.7-1.1-0.9-1.9-0.9c-0.7,0-1.4,0.3-1.9,0.9C143.5,80.1,143.2,81,143.2,82.1z"
		/>
	<path class="st1" d="M156.6,78.9c-0.2,0-0.5-0.1-0.7-0.1c-1,0-1.7,0.4-2.1,1.3v6.5h-1.6v-9.2h1.6v1.1c0.5-0.8,1.2-1.2,2.2-1.2
		c0.3,0,0.5,0,0.7,0.1L156.6,78.9L156.6,78.9z"/>
	<path class="st1" d="M163.7,86.7c-0.1-0.2-0.2-0.5-0.2-1c-0.7,0.7-1.6,1.2-2.7,1.2c-0.9,0-1.7-0.2-2.2-0.7s-0.8-1.2-0.8-2
		c0-1,0.3-1.7,1.1-2.2s1.7-0.8,3.1-0.8h1.6v-0.7c0-0.6-0.2-1-0.5-1.3c-0.3-0.3-0.8-0.5-1.5-0.5c-0.6,0-1,0.2-1.4,0.4
		c-0.4,0.2-0.6,0.7-0.6,1h-1.6c0-0.4,0.2-0.9,0.5-1.3c0.3-0.4,0.7-0.7,1.3-1c0.6-0.2,1.2-0.4,1.8-0.4c1.1,0,1.9,0.2,2.5,0.8
		c0.6,0.5,0.9,1.2,0.9,2.2v4.2c0,0.8,0.1,1.5,0.3,2v0.2L163.7,86.7L163.7,86.7z M161.1,85.4c0.5,0,1-0.1,1.4-0.4
		c0.4-0.3,0.7-0.6,1-1v-1.9h-1.2c-1.9,0-2.9,0.6-2.9,1.7c0,0.5,0.2,0.9,0.5,1.2C160.2,85.2,160.6,85.4,161.1,85.4z"/>
	<path class="st1" d="M169.9,75.2v2.2h1.7v1.2h-1.7v5.7c0,0.3,0.1,0.7,0.2,0.8s0.4,0.2,0.7,0.2c0.2,0,0.4,0,0.7-0.1v1.2
		c-0.4,0.1-0.8,0.2-1.2,0.2c-0.7,0-1.2-0.2-1.6-0.7c-0.3-0.4-0.5-1-0.5-1.8v-5.6h-1.7v-1.2h1.7v-2.2H169.9L169.9,75.2z"/>
	<path class="st1" d="M173.1,82c0-0.9,0.2-1.7,0.5-2.4c0.3-0.7,0.8-1.2,1.5-1.7c0.7-0.4,1.3-0.6,2.2-0.6c1.2,0,2.2,0.4,3.1,1.3
		c0.7,0.8,1.2,2,1.2,3.5v0.1c0,0.9-0.2,1.7-0.5,2.4c-0.3,0.7-0.8,1.2-1.5,1.7c-0.7,0.4-1.3,0.6-2.2,0.6c-1.2,0-2.2-0.4-3.1-1.3
		c-0.7-0.8-1.2-2-1.2-3.4V82L173.1,82z M174.7,82.1c0,1,0.2,1.8,0.7,2.5s1.1,0.9,1.9,0.9c0.8,0,1.4-0.3,1.9-0.9
		c0.5-0.7,0.7-1.5,0.7-2.7c0-1-0.2-1.8-0.7-2.5c-0.5-0.7-1.1-0.9-1.9-0.9c-0.7,0-1.4,0.3-1.9,0.9C174.9,80.1,174.7,81,174.7,82.1z"
		/>
	<path class="st1" d="M188.1,78.9c-0.2,0-0.5-0.1-0.7-0.1c-1,0-1.7,0.4-2.1,1.3v6.5h-1.6v-9.2h1.6v1.1c0.5-0.8,1.2-1.2,2.2-1.2
		c0.3,0,0.5,0,0.7,0.1V78.9L188.1,78.9z"/>
	<path class="st1" d="M193,84.4l2.2-6.9h1.7l-3.7,10.6c-0.6,1.6-1.5,2.3-2.7,2.3H190l-0.6-0.1v-1.2h0.4c0.5,0,0.9-0.1,1.2-0.3
		c0.3-0.2,0.5-0.6,0.7-1.2l0.3-0.9l-3.3-9.1h1.7L193,84.4z"/>
	<path class="st1" d="M66.7,104.6l1.1-6h-1.1l0.2-0.9H68l0.1-0.8c0.1-0.7,0.4-1.2,0.8-1.7c0.4-0.4,1-0.6,1.7-0.6
		c0.2,0,0.5,0,0.8,0.1l-0.2,1c-0.2,0-0.4-0.1-0.7-0.1c-0.4,0-0.7,0.1-1,0.4c-0.2,0.3-0.4,0.6-0.5,1L69,97.6h1.5l-0.2,0.9h-1.5
		l-1.1,6H66.7L66.7,104.6z"/>
	<path class="st1" d="M74.7,97.4c0.6,0,1.1,0.2,1.5,0.5c0.4,0.3,0.7,0.7,0.9,1.2c0.2,0.6,0.2,1.2,0.2,1.8v0.2
		c-0.1,0.7-0.2,1.3-0.6,1.8c-0.3,0.5-0.7,1-1.2,1.2c-0.5,0.2-1.1,0.4-1.7,0.4s-1.1-0.2-1.5-0.5c-0.4-0.3-0.7-0.7-0.9-1.2
		c-0.2-0.5-0.2-1.2-0.2-1.7c0.1-0.7,0.2-1.4,0.6-2c0.3-0.6,0.7-1,1.2-1.3C73.5,97.5,74,97.4,74.7,97.4z M72.3,101.2
		c0,0.2,0,0.6,0,0.8c0,0.5,0.2,0.9,0.4,1.2c0.2,0.3,0.6,0.4,1.1,0.5c0.4,0,0.7-0.1,1.1-0.3c0.3-0.2,0.6-0.5,0.8-0.9
		c0.2-0.4,0.4-0.8,0.4-1.4c0-0.4,0-0.7,0-1c-0.1-0.5-0.2-0.9-0.5-1.2c-0.3-0.3-0.6-0.5-1.1-0.5c-0.6,0-1.2,0.2-1.6,0.7
		c-0.4,0.5-0.7,1.2-0.8,1.9L72.3,101.2z"/>
	<path class="st1" d="M82.6,98.6L82,98.5c-0.7,0-1.3,0.3-1.7,1l-0.8,5h-1.2l1.2-7h1.2l-0.2,0.8c0.5-0.7,1.1-1,1.7-0.9
		c0.2,0,0.3,0,0.6,0.1L82.6,98.6z"/>
	<path class="st1" d="M93.6,101.5c-0.2,1-0.7,1.7-1.3,2.3c-0.7,0.6-1.6,0.8-2.5,0.8c-0.6,0-1.1-0.2-1.5-0.4c-0.4-0.2-0.7-0.7-1-1.2
		c-0.2-0.5-0.4-1.1-0.4-1.7c0-0.3,0-0.7,0-1l0.1-0.7c0.2-1.4,0.7-2.6,1.5-3.3c0.8-0.8,1.7-1.2,2.9-1.2c0.9,0,1.6,0.3,2.1,0.8
		c0.5,0.6,0.8,1.3,0.8,2.3H93c-0.1-1.3-0.6-2.1-1.6-2.2h-0.2c-0.8,0-1.5,0.2-2.1,0.9c-0.6,0.7-0.9,1.5-1.1,2.6l-0.2,1v0.6
		c0,0.8,0.1,1.4,0.4,1.9c0.3,0.5,0.7,0.7,1.4,0.7c0.7,0,1.2-0.2,1.7-0.5c0.4-0.3,0.7-0.9,1-1.7L93.6,101.5z"/>
	<path class="st1" d="M99.1,104.6c0-0.1,0-0.2,0-0.4v-0.4c-0.7,0.6-1.3,0.9-2.1,0.8c-0.7,0-1.2-0.2-1.5-0.6
		c-0.3-0.4-0.6-0.8-0.5-1.4c0-0.7,0.3-1.3,1-1.7c0.6-0.4,1.4-0.7,2.4-0.7h1.2l0.1-0.6c0-0.4,0-0.7-0.2-1c-0.2-0.2-0.5-0.4-0.9-0.4
		c-0.4,0-0.7,0.1-1.1,0.3C97.2,98.7,97,99,97,99.4h-1.2c0-0.4,0.2-0.7,0.5-1.1c0.2-0.3,0.7-0.6,1.1-0.7c0.4-0.2,0.9-0.2,1.3-0.2
		c0.7,0,1.3,0.2,1.7,0.7c0.4,0.4,0.6,1,0.5,1.7l-0.6,3.5v0.5c0,0.2,0,0.5,0.1,0.7v0.1L99.1,104.6L99.1,104.6L99.1,104.6z
		 M97.2,103.7c0.4,0,0.7-0.1,1.1-0.2c0.3-0.2,0.7-0.4,0.8-0.7l0.2-1.4h-0.9c-0.7,0-1.3,0.1-1.7,0.3c-0.4,0.2-0.6,0.6-0.7,1
		c0,0.3,0,0.6,0.2,0.8C96.6,103.5,96.9,103.6,97.2,103.7z"/>
	<path class="st1" d="M104.3,97.5l-0.2,0.9c0.7-0.7,1.3-1,2.2-1c0.7,0,1.2,0.2,1.5,0.7c0.3,0.4,0.4,1.1,0.3,1.8l-0.7,4.6h-1.2
		l0.7-4.6c0-0.2,0-0.4,0-0.6c-0.1-0.6-0.4-0.9-1.1-0.9c-0.7,0-1.3,0.3-1.8,1.2l-0.8,5h-1.2l1.2-7L104.3,97.5z"/>
	<path class="st1" d="M112.2,103.7c0.4,0,0.8-0.1,1.2-0.3c0.3-0.2,0.6-0.6,0.7-1h1.1c-0.1,0.4-0.2,0.8-0.5,1.2
		c-0.2,0.4-0.7,0.7-1.1,0.8c-0.4,0.2-0.9,0.3-1.3,0.2c-0.6,0-1.1-0.2-1.5-0.4c-0.4-0.3-0.7-0.7-0.9-1.2c-0.2-0.5-0.2-1.2-0.2-1.7
		v-0.3c0.1-0.7,0.2-1.2,0.6-1.8c0.3-0.6,0.7-0.9,1.2-1.2c0.5-0.3,1.1-0.4,1.7-0.4c0.7,0,1.3,0.2,1.7,0.7c0.4,0.5,0.7,1.1,0.7,1.8
		h-1.1c0-0.4-0.2-0.8-0.4-1.1c-0.2-0.2-0.6-0.4-1-0.4c-0.6,0-1.1,0.2-1.5,0.7c-0.4,0.4-0.7,1.2-0.7,2v0.2c0,0.2,0,0.6,0,0.8
		c0,0.5,0.2,0.9,0.4,1.2C111.5,103.5,111.8,103.7,112.2,103.7z"/>
	<path class="st1" d="M119.3,104.7c-0.8,0-1.6-0.3-2.1-1s-0.7-1.4-0.7-2.4V101c0.1-0.7,0.2-1.3,0.7-1.9c0.3-0.6,0.7-1,1.2-1.3
		c0.5-0.3,1-0.4,1.6-0.4c0.7,0,1.2,0.2,1.7,0.7c0.4,0.5,0.7,1.1,0.7,1.9c0,0.2,0,0.6,0,0.8l-0.1,0.5h-4.6c-0.1,0.7,0,1.2,0.3,1.7
		c0.3,0.4,0.7,0.7,1.2,0.7c0.7,0,1.3-0.3,1.9-0.9l0.7,0.6c-0.3,0.4-0.7,0.7-1.2,1C120.3,104.6,119.8,104.7,119.3,104.7z M120,98.4
		c-0.5,0-0.9,0.2-1.2,0.5c-0.3,0.3-0.7,0.8-0.8,1.5h3.4v-0.1c0.1-0.6,0-1-0.2-1.3C120.8,98.6,120.4,98.4,120,98.4z"/>
	<path class="st1" d="M127.6,98.6l-0.6-0.1c-0.7,0-1.3,0.3-1.7,1l-0.8,5h-1.2l1.2-7h1.2l-0.2,0.8c0.5-0.7,1.1-1,1.7-0.9
		c0.2,0,0.3,0,0.6,0.1L127.6,98.6z"/>
	<path class="st1" d="M135.4,100.8h-2.2l-0.7,3.8h-1.2l1.7-9.4h2.8c1,0,1.7,0.2,2.2,0.7c0.5,0.5,0.7,1.2,0.7,2.1
		c-0.1,0.6-0.2,1.1-0.7,1.6c-0.4,0.5-0.9,0.8-1.5,1l1.5,4v0.1h-1.3L135.4,100.8z M133.4,99.7h1.8c0.7,0,1.2-0.2,1.6-0.5
		c0.4-0.3,0.7-0.7,0.7-1.3c0.1-0.5,0-1-0.3-1.2c-0.2-0.3-0.7-0.5-1.2-0.5h-1.9L133.4,99.7z"/>
	<path class="st1" d="M142.3,104.7c-0.8,0-1.6-0.3-2.1-1s-0.7-1.4-0.7-2.4V101c0.1-0.7,0.2-1.3,0.7-1.9c0.3-0.6,0.7-1,1.2-1.3
		c0.5-0.3,1-0.4,1.6-0.4c0.7,0,1.2,0.2,1.7,0.7c0.4,0.5,0.7,1.1,0.7,1.9c0,0.2,0,0.6,0,0.8l-0.1,0.5h-4.6c-0.1,0.7,0,1.2,0.3,1.7
		c0.3,0.4,0.7,0.7,1.2,0.7c0.7,0,1.3-0.3,1.9-0.9l0.7,0.6c-0.3,0.4-0.7,0.7-1.2,1C143.2,104.6,142.9,104.7,142.3,104.7z M143,98.4
		c-0.5,0-0.9,0.2-1.2,0.5c-0.3,0.3-0.7,0.8-0.8,1.5h3.4v-0.1c0.1-0.6,0-1-0.2-1.3C143.9,98.6,143.5,98.4,143,98.4z"/>
	<path class="st1" d="M150.7,102.7c0.1-0.5-0.2-0.8-0.8-1l-1.2-0.3c-1-0.3-1.5-0.9-1.5-1.7c0-0.6,0.3-1.2,0.8-1.5
		c0.5-0.3,1.2-0.6,1.9-0.6c0.7,0,1.2,0.2,1.7,0.7c0.5,0.4,0.7,0.9,0.7,1.6h-1.2c0-0.3-0.1-0.7-0.3-0.8c-0.2-0.2-0.5-0.3-0.9-0.3
		s-0.7,0.1-1.1,0.3c-0.2,0.2-0.4,0.4-0.5,0.7c-0.1,0.4,0.2,0.7,0.7,0.9l0.6,0.2c0.8,0.2,1.4,0.5,1.7,0.8c0.3,0.3,0.5,0.7,0.5,1.2
		c0,0.4-0.2,0.8-0.4,1.2c-0.2,0.3-0.6,0.6-1,0.7c-0.4,0.2-0.9,0.2-1.4,0.2c-0.7,0-1.3-0.2-1.8-0.7c-0.5-0.4-0.7-1-0.7-1.7h1.2
		c0,0.4,0.1,0.7,0.4,0.9c0.2,0.2,0.6,0.3,1,0.3s0.8-0.1,1.1-0.2S150.6,103,150.7,102.7z"/>
	<path class="st1" d="M156.1,104.7c-0.8,0-1.6-0.3-2.1-1c-0.5-0.7-0.7-1.4-0.7-2.4V101c0.1-0.7,0.2-1.3,0.7-1.9
		c0.3-0.6,0.7-1,1.2-1.3c0.5-0.3,1-0.4,1.6-0.4c0.7,0,1.2,0.2,1.7,0.7c0.4,0.5,0.7,1.1,0.7,1.9c0,0.2,0,0.6,0,0.8l-0.1,0.5h-4.6
		c-0.1,0.7,0,1.2,0.3,1.7c0.3,0.4,0.7,0.7,1.2,0.7c0.7,0,1.3-0.3,1.9-0.9l0.7,0.6c-0.3,0.4-0.7,0.7-1.2,1
		C157,104.6,156.7,104.7,156.1,104.7z M156.9,98.4c-0.5,0-0.9,0.2-1.2,0.5c-0.3,0.3-0.7,0.8-0.8,1.5h3.4v-0.1c0.1-0.6,0-1-0.2-1.3
		C157.7,98.6,157.4,98.4,156.9,98.4z"/>
	<path class="st1" d="M164.4,104.6c0-0.1,0-0.2,0-0.4v-0.4c-0.7,0.6-1.3,0.9-2.1,0.8c-0.7,0-1.2-0.2-1.5-0.6
		c-0.3-0.4-0.6-0.8-0.5-1.4c0-0.7,0.3-1.3,1-1.7c0.6-0.4,1.4-0.7,2.4-0.7h1.2l0.1-0.6c0-0.4,0-0.7-0.2-1c-0.2-0.2-0.5-0.4-0.9-0.4
		c-0.4,0-0.7,0.1-1.1,0.3c-0.3,0.2-0.5,0.5-0.6,0.8h-1.2c0-0.4,0.2-0.7,0.5-1.1c0.2-0.3,0.7-0.6,1.1-0.7c0.4-0.2,0.9-0.2,1.3-0.2
		c0.7,0,1.3,0.2,1.7,0.7c0.4,0.4,0.6,1,0.5,1.7l-0.6,3.5v0.5c0,0.2,0,0.5,0.1,0.7v0.1L164.4,104.6L164.4,104.6L164.4,104.6z
		 M162.6,103.7c0.4,0,0.7-0.1,1.1-0.2c0.3-0.2,0.7-0.4,0.8-0.7l0.2-1.4h-0.9c-0.7,0-1.3,0.1-1.7,0.3c-0.4,0.2-0.6,0.6-0.7,1
		c0,0.3,0,0.6,0.2,0.8C161.9,103.5,162.2,103.6,162.6,103.7z"/>
	<path class="st1" d="M171.7,98.6l-0.6-0.1c-0.7,0-1.3,0.3-1.7,1l-0.8,5h-1.2l1.2-7h1.2l-0.2,0.8c0.5-0.7,1.1-1,1.7-0.9
		c0.2,0,0.3,0,0.6,0.1L171.7,98.6z"/>
	<path class="st1" d="M174.7,103.7c0.4,0,0.8-0.1,1.2-0.3c0.3-0.2,0.6-0.6,0.7-1h1.1c-0.1,0.4-0.2,0.8-0.5,1.2
		c-0.3,0.3-0.7,0.7-1.1,0.8c-0.4,0.2-0.9,0.3-1.3,0.2c-0.6,0-1.1-0.2-1.5-0.4c-0.4-0.3-0.7-0.7-0.9-1.2c-0.2-0.5-0.2-1.2-0.2-1.7
		v-0.3c0.1-0.7,0.2-1.2,0.6-1.8c0.3-0.6,0.7-0.9,1.2-1.2c0.5-0.3,1.1-0.4,1.7-0.4c0.7,0,1.3,0.2,1.7,0.7c0.4,0.5,0.7,1.1,0.7,1.8
		h-1.1c0-0.4-0.2-0.8-0.4-1.1c-0.2-0.2-0.6-0.4-1-0.4c-0.6,0-1.2,0.2-1.5,0.7c-0.4,0.5-0.7,1.2-0.7,2v0.2c0,0.2,0,0.6,0,0.8
		c0,0.5,0.2,0.9,0.4,1.2C173.9,103.5,174.3,103.7,174.7,103.7z"/>
	<path class="st1" d="M180.8,98.4c0.6-0.7,1.3-1,2.1-1c0.7,0,1.2,0.2,1.5,0.7c0.3,0.4,0.4,1.1,0.3,1.8l-0.7,4.6h-1.2l0.7-4.6
		c0-0.2,0-0.4,0-0.6c-0.1-0.6-0.4-0.9-1.1-0.9c-0.7,0-1.3,0.3-1.8,1.2l-0.8,5h-1.2l1.7-9.9h1.2L180.8,98.4z"/>
	<path class="st2" d="M96,17.7c-0.6,0-1.1-0.2-1.6-0.6C84.6,9.3,72.3,5,59.8,5c-10.9,0-21.5,3.1-30.5,9.2c-1.2,0.7-2.7,0.4-3.5-0.7
		c-0.7-1.2-0.4-2.7,0.7-3.5C36.4,3.5,47.8,0,59.8,0c13.8,0,27.1,4.7,37.7,13.3c1.1,0.8,1.2,2.4,0.4,3.5C97.4,17.4,96.6,17.7,96,17.7
		z"/>
	<path class="st3" d="M2.5,59.4L2.5,59.4C1,59.3,0,58.2,0,56.9c0.6-14.5,6.5-28.2,16.7-38.6c0.9-1,2.6-1,3.5-0.1
		c0.9,0.9,1,2.5,0.1,3.5C10.9,31.2,5.6,43.8,5,57.1C4.9,58.4,3.8,59.4,2.5,59.4z"/>
	<path class="st2" d="M4.4,47.2c-0.2,0-0.4,0-0.7-0.1C2.4,46.7,1.6,45.3,2,44c2-7.3,5.3-14.1,9.9-20.2c0.8-1.1,2.4-1.3,3.5-0.5
		s1.3,2.4,0.5,3.5c-4.3,5.6-7.3,11.9-9.1,18.6C6.5,46.4,5.5,47.2,4.4,47.2z"/>
	<path class="st2" d="M8,86.6c-0.9,0-1.8-0.5-2.2-1.4C3.4,80.1,1.7,74.7,0.7,69c-0.2-1.3,0.7-2.7,2.1-2.8C4.1,66,5.5,67,5.6,68.3
		c0.8,5.1,2.4,10.1,4.6,14.8c0.6,1.2,0.1,2.7-1.2,3.3C8.8,86.5,8.5,86.6,8,86.6z"/>
	<path class="st4" d="M40.9,30.7c-0.8,0-1.7-0.4-2.2-1.2c-0.7-1.2-0.3-2.7,0.8-3.4c3-1.8,6.1-3.1,9.4-4.1c4.3-1.2,9-1.7,13.5-1.4
		c1.3,0.1,2.4,1.2,2.3,2.7c-0.1,1.3-1.2,2.4-2.7,2.3c-4-0.2-8,0.2-11.8,1.2c-2.9,0.8-5.6,2.1-8.3,3.6C41.8,30.5,41.3,30.7,40.9,30.7
		z"/>
	<path class="st5" d="M37.2,102.4c-0.4,0-0.8-0.1-1.2-0.3c-11.9-6.5-20.6-17.8-24-30.9c-1.2-4.6-1.7-9.2-1.6-13.8
		c0-1.4,1.2-2.5,2.6-2.4c1.4,0,2.5,1.2,2.4,2.6c-0.1,4.1,0.3,8.4,1.4,12.4c3.1,11.9,10.8,21.8,21.5,27.8c1.2,0.7,1.7,2.2,1,3.4
		C39,102,38.1,102.4,37.2,102.4z"/>
	<path class="st4" d="M25.9,48.1c-0.3,0-0.7-0.1-1-0.2c-1.2-0.5-1.8-2-1.3-3.2c0.4-1,0.9-2,1.4-2.9c0.7-1.2,2.2-1.7,3.4-1.1
		c1.2,0.7,1.7,2.2,1.1,3.3c-0.4,0.8-0.8,1.7-1.2,2.6C27.8,47.5,26.9,48.1,25.9,48.1z"/>
	<path class="st4" d="M25.4,74.6c-1,0-2-0.6-2.3-1.6c-2.2-5.6-2.9-11.5-2.2-17.6c0.2-1.3,1.3-2.3,2.7-2.2c1.3,0.2,2.3,1.3,2.2,2.7
		c-0.7,5.2,0,10.4,1.9,15.3c0.5,1.2-0.2,2.7-1.4,3.2C26,74.6,25.7,74.6,25.4,74.6z"/>
	<path class="st0" d="M23.7,68.6c-1.2,0-2.2-0.8-2.4-2c-0.7-3.6-0.8-7.5-0.5-11.2c0.2-1.3,1.3-2.4,2.7-2.2c1.3,0.2,2.3,1.3,2.2,2.7
		c-0.3,3.3-0.2,6.5,0.4,9.8c0.2,1.3-0.7,2.7-2,2.9C24,68.6,23.9,68.6,23.7,68.6z"/>
	<path class="st5" d="M23,90.4c-0.7,0-1.5-0.3-2-0.9c-2.2-2.7-4.1-5.7-5.6-8.9c-0.6-1.2-0.1-2.7,1.2-3.3s2.7-0.1,3.3,1.2
		c1.4,2.8,3.1,5.6,5.1,8c0.8,1.1,0.7,2.7-0.4,3.5C24.1,90.2,23.6,90.4,23,90.4z"/>
	<path class="st4" d="M25.4,74.6c-1,0-2-0.6-2.3-1.6c-0.7-2.1-1.4-4.2-1.8-6.4c-0.2-1.3,0.7-2.7,2-2.9c1.3-0.2,2.7,0.7,2.9,2
		c0.3,1.9,0.9,3.7,1.6,5.6c0.5,1.2-0.2,2.7-1.4,3.2C26,74.6,25.7,74.6,25.4,74.6z"/>
	<path class="st6" d="M35.3,21.8c-0.8,0-1.7-0.4-2.2-1.2c-0.7-1.2-0.3-2.7,0.8-3.4c7.7-4.7,16.7-7.2,25.8-7.2c4.7,0,9.4,0.7,13.8,2
		c1.3,0.4,2.1,1.7,1.7,3.1c-0.4,1.3-1.7,2.1-3.1,1.7c-4-1.2-8.2-1.7-12.4-1.7c-8.2,0-16.2,2.2-23.2,6.5
		C36.2,21.7,35.7,21.8,35.3,21.8z"/>
	<path class="st5" d="M26.2,29c-0.7,0-1.2-0.2-1.7-0.7c-1-1-1-2.6,0-3.5c2.8-2.9,6-5.5,9.5-7.6c1.2-0.7,2.7-0.3,3.4,0.8
		s0.3,2.7-0.8,3.4c-3.1,1.9-6,4.2-8.6,6.9C27.5,28.8,26.9,29,26.2,29z"/>
	<path class="st6" d="M12.9,60.8L12.9,60.8c-1.4,0-2.5-1.2-2.5-2.5c0.1-9,2.7-17.8,7.5-25.4c0.7-1.2,2.2-1.5,3.4-0.7
		c1.2,0.7,1.5,2.2,0.7,3.4c-4.3,6.8-6.7,14.8-6.8,22.8C15.4,59.7,14.3,60.8,12.9,60.8z"/>
	<path class="st7" d="M20.1,36.6c-0.5,0-0.9-0.1-1.3-0.4c-1.2-0.7-1.5-2.2-0.7-3.4c1.8-2.9,4-5.6,6.4-8c1-1,2.6-1,3.5,0
		c1,1,1,2.6,0,3.5c-2.2,2.2-4.1,4.6-5.7,7.2C21.8,36.3,21,36.6,20.1,36.6z"/>
</g>
</svg>
